<svg width="18" height="20" viewBox="0 0 18 20" fill="none" xmlns="http://www.w3.org/2000/svg">
<path d="M14.8785 13.9713L11.6151 17.3868C10.8387 18.1994 10.5249 18.5193 10.2081 18.6926C9.45863 19.1025 8.54139 19.1025 7.7919 18.6926C7.47514 18.5193 7.16131 18.1994 6.38492 17.3868L3.12157 13.9713C0.209124 10.9231 0.30692 6.19711 3.34315 3.26376C6.46734 0.245415 11.5327 0.245415 14.6569 3.26376C17.6931 6.19711 17.7909 10.9231 14.8785 13.9713Z" stroke="url(#paint0_linear_5153_2787)" stroke-width="1.5"/>
<path d="M11.4242 11.2614C10.0853 12.5795 7.91443 12.5795 6.57554 11.2614C5.23654 9.94348 5.23654 7.80654 6.57554 6.48852C7.91443 5.17049 10.0853 5.17049 11.4242 6.48852C12.7632 7.80654 12.7632 9.94348 11.4242 11.2614Z" stroke="white" stroke-opacity="0.3"/>
<defs>
<linearGradient id="paint0_linear_5153_2787" x1="9" y1="1" x2="9" y2="19" gradientUnits="userSpaceOnUse">
<stop stop-color="#EB2613"/>
<stop offset="1" stop-color="#FC5B2A"/>
</linearGradient>
</defs>
</svg>
