<svg width="22" height="22" viewBox="0 0 22 22" fill="none" xmlns="http://www.w3.org/2000/svg">
<path d="M18.2122 4.90065L18.9304 5.11683L18.2122 4.90065ZM18.8278 3.58645L18.2019 3.17313V3.17313L18.8278 3.58645ZM8.75 19C8.75 17.751 7.74166 16.75 6.49994 16.75V18.25C6.91616 18.25 7.25 18.5823 7.25 19H8.75ZM6.49994 16.75C5.25814 16.75 4.25 17.7511 4.25 19H5.75C5.75 18.5823 6.0838 18.25 6.49994 18.25V16.75ZM4.25 19C4.25 20.2489 5.25814 21.25 6.49994 21.25V19.75C6.0838 19.75 5.75 19.4177 5.75 19H4.25ZM6.49994 21.25C7.74166 21.25 8.75 20.249 8.75 19H7.25C7.25 19.4177 6.91616 19.75 6.49994 19.75V21.25ZM16.75 19C16.75 17.751 15.7417 16.75 14.5 16.75V18.25C14.9162 18.25 15.25 18.5823 15.25 19H16.75ZM14.5 16.75C13.2583 16.75 12.25 17.751 12.25 19H13.75C13.75 18.5823 14.0838 18.25 14.5 18.25V16.75ZM12.25 19C12.25 20.249 13.2583 21.25 14.5 21.25V19.75C14.0838 19.75 13.75 19.4177 13.75 19H12.25ZM14.5 21.25C15.7417 21.25 16.75 20.249 16.75 19H15.25C15.25 19.4177 14.9162 19.75 14.5 19.75V21.25ZM8 19.75H13V18.25H8V19.75ZM18.75 17V7.90513H17.25V17H18.75ZM18.75 7.90513C18.75 6.32677 18.7575 5.69132 18.9304 5.11683L17.4941 4.68446C17.2425 5.51996 17.25 6.4175 17.25 7.90513H18.75ZM20.5199 0.923834C19.377 1.87619 18.6828 2.44506 18.2019 3.17313L19.4536 3.99976C19.7842 3.49913 20.2676 3.08661 21.4801 2.07617L20.5199 0.923834ZM18.9304 5.11683C19.0495 4.72101 19.2258 4.34469 19.4536 3.99976L18.2019 3.17313C17.8937 3.63981 17.6553 4.14894 17.4941 4.68446L18.9304 5.11683ZM16 19.75C17.5188 19.75 18.75 18.5188 18.75 17H17.25C17.25 17.6904 16.6904 18.25 16 18.25V19.75Z" fill="url(#paint0_linear_5153_1637)"/>
<path d="M16 6.5L3.75624 6.5C2.49756 6.5 1.86822 6.5 1.56875 6.9127C1.26929 7.3254 1.46448 7.92371 1.85487 9.12032L2.25963 10.361C2.9111 12.3578 3.23683 13.3562 4.02496 13.9281C4.8131 14.5 5.86331 14.5 7.96374 14.5H16" stroke="#232727" stroke-miterlimit="10"/>
<defs>
<linearGradient id="paint0_linear_5153_1637" x1="13" y1="1.5" x2="13" y2="20.5" gradientUnits="userSpaceOnUse">
<stop stop-color="#EB2613"/>
<stop offset="1" stop-color="#FC5B2A"/>
</linearGradient>
</defs>
</svg>
