<svg width="18" height="18" viewBox="0 0 18 18" fill="none" xmlns="http://www.w3.org/2000/svg">
<path d="M15.0913 13.8941C15.2686 15.8007 11.6634 17.201 9.11712 16.1554C6.01995 14.734 2.24088 10.889 1.28283 7.64338C0.71203 5.46835 2.38519 2.51983 4.06887 2.57383C4.6337 2.61349 6.9004 6.17572 5.98981 6.99467C5.20422 7.72607 4.85391 7.71753 5.35538 8.63561C5.97874 9.86725 7.75022 11.7092 8.97704 12.3732C9.96776 12.8762 9.98168 12.5401 10.8244 11.7324C11.8708 10.8909 15.116 13.6229 15.0913 13.8941Z" stroke="url(#paint0_linear_5153_2756)" stroke-width="1.5" stroke-miterlimit="10" stroke-linecap="round" stroke-linejoin="round"/>
<path d="M9 6.5V6.5C10.3807 6.5 11.5 7.61929 11.5 9V9M14.5 9V9C14.5 5.96243 12.0376 3.5 9 3.5V3.5M9 0.5V0.5C13.6944 0.5 17.5 4.30558 17.5 9V9" stroke="white" stroke-opacity="0.3"/>
<defs>
<linearGradient id="paint0_linear_5153_2756" x1="6.74025" y1="2.10146" x2="9.19932" y2="16.8985" gradientUnits="userSpaceOnUse">
<stop stop-color="#EB2613"/>
<stop offset="1" stop-color="#FC5B2A"/>
</linearGradient>
</defs>
</svg>
