<svg width="50" height="50" viewBox="0 0 50 50" fill="none" xmlns="http://www.w3.org/2000/svg">
<path d="M16.8411 15.092V1L0.819336 8.2976V46.8002L11.6769 41.8931" stroke="#232727" stroke-miterlimit="10" stroke-linecap="round" stroke-linejoin="round"/>
<path d="M16.8398 14.0857V1L32.8613 8.2976V46.8002L22.1363 41.8931" stroke="#232727" stroke-miterlimit="10" stroke-linecap="round" stroke-linejoin="round"/>
<path d="M32.8623 46.8002L48.8841 39.5026V1L32.8623 8.2976V46.8002Z" stroke="#232727" stroke-miterlimit="10" stroke-linecap="round" stroke-linejoin="round"/>
<path d="M16.8391 29.4373C19.3254 29.4373 21.3409 27.5215 21.3409 25.1588C21.3409 22.7961 19.3254 20.8809 16.8391 20.8809C14.3527 20.8809 12.3369 22.7961 12.3369 25.1588C12.3369 27.5215 14.3527 29.4373 16.8391 29.4373Z" stroke="url(#paint0_linear_604_942)" stroke-width="2" stroke-miterlimit="10" stroke-linejoin="round"/>
<path d="M28.0948 25.7881C28.0948 31.7018 16.8399 46.8011 16.8399 46.8011C16.8399 46.8011 5.58496 31.7018 5.58496 25.7881C5.58496 19.8743 10.6166 15.093 16.8399 15.093C23.0632 15.093 28.0948 19.8743 28.0948 25.7881Z" stroke="url(#paint1_linear_604_942)" stroke-width="2" stroke-miterlimit="10" stroke-linejoin="round"/>
<defs>
<linearGradient id="paint0_linear_604_942" x1="16.8389" y1="20.8809" x2="16.8389" y2="29.4373" gradientUnits="userSpaceOnUse">
<stop stop-color="#EB2613"/>
<stop offset="1" stop-color="#FC5B2A"/>
</linearGradient>
<linearGradient id="paint1_linear_604_942" x1="16.8399" y1="15.093" x2="16.8399" y2="46.8011" gradientUnits="userSpaceOnUse">
<stop stop-color="#EB2613"/>
<stop offset="1" stop-color="#FC5B2A"/>
</linearGradient>
</defs>
</svg>
