<svg width="51" height="50" viewBox="0 0 51 50" fill="none" xmlns="http://www.w3.org/2000/svg">
<path d="M19.9644 43.2302C29.9581 45.908 40.2515 39.8984 42.9554 29.8073C45.6593 19.7162 39.7498 9.36493 29.7561 6.68712C19.7624 4.00932 9.46894 10.019 6.76504 20.1101C4.06114 30.2012 9.97068 40.5524 19.9644 43.2302Z" stroke="url(#paint0_linear_5153_2891)" stroke-miterlimit="10" stroke-dasharray="2 2"/>
<path d="M15 24.5385L23.2951 33L38 18" stroke="url(#paint1_linear_5153_2891)"/>
<path d="M23.2519 2.01607C24.277 1.20732 25.723 1.20732 26.7481 2.01607C27.793 2.84045 29.1914 3.06195 30.4399 2.6008C31.6647 2.14839 33.04 2.59524 33.7649 3.68117C34.5039 4.78809 35.7655 5.43089 37.0954 5.37812C38.4001 5.32634 39.5699 6.17629 39.9238 7.43311C40.2846 8.7142 41.2858 9.7154 42.5669 10.0762C43.8237 10.4301 44.6737 11.5999 44.6219 12.9046C44.5691 14.2345 45.2119 15.4961 46.3188 16.2351C47.4048 16.96 47.8516 18.3353 47.3992 19.5601C46.9381 20.8086 47.1595 22.207 47.9839 23.2519C48.7927 24.277 48.7927 25.723 47.9839 26.7481C47.1595 27.793 46.9381 29.1914 47.3992 30.4399C47.8516 31.6647 47.4048 33.04 46.3188 33.7649C45.2119 34.5039 44.5691 35.7655 44.6219 37.0954C44.6737 38.4001 43.8237 39.5699 42.5669 39.9238C41.2858 40.2846 40.2846 41.2858 39.9238 42.5669C39.5699 43.8237 38.4001 44.6737 37.0954 44.6219C35.7655 44.5691 34.5039 45.2119 33.7649 46.3188C33.04 47.4048 31.6647 47.8516 30.4399 47.3992C29.1914 46.9381 27.793 47.1595 26.7481 47.9839C25.723 48.7927 24.277 48.7927 23.2519 47.9839C22.207 47.1595 20.8086 46.938 19.5601 47.3992C18.3353 47.8516 16.96 47.4048 16.2351 46.3188C15.4961 45.2119 14.2345 44.5691 12.9046 44.6219C11.5999 44.6737 10.4301 43.8237 10.0762 42.5669C9.7154 41.2858 8.7142 40.2846 7.43311 39.9238C6.17629 39.5699 5.32634 38.4001 5.37812 37.0954C5.43089 35.7655 4.78809 34.5039 3.68117 33.7649C2.59524 33.04 2.14839 31.6647 2.6008 30.4399C3.06195 29.1914 2.84045 27.793 2.01607 26.7481C1.20732 25.723 1.20732 24.277 2.01607 23.2519C2.84045 22.207 3.06195 20.8086 2.6008 19.5601C2.14839 18.3353 2.59524 16.96 3.68117 16.2351C4.78809 15.4961 5.43089 14.2345 5.37812 12.9046C5.32634 11.5999 6.17629 10.4301 7.43311 10.0762C8.7142 9.7154 9.7154 8.7142 10.0762 7.43311C10.4301 6.17629 11.5999 5.32634 12.9046 5.37812C14.2345 5.43089 15.4961 4.78809 16.2351 3.68117C16.96 2.59524 18.3353 2.14839 19.5601 2.6008C20.8086 3.06195 22.207 2.84045 23.2519 2.01607Z" stroke="url(#paint2_linear_5153_2891)"/>
<defs>
<linearGradient id="paint0_linear_5153_2891" x1="29.7561" y1="6.68712" x2="19.9644" y2="43.2302" gradientUnits="userSpaceOnUse">
<stop stop-color="#EB2613"/>
<stop offset="1" stop-color="#FC5B2A"/>
</linearGradient>
<linearGradient id="paint1_linear_5153_2891" x1="26.5" y1="18" x2="26.5" y2="33" gradientUnits="userSpaceOnUse">
<stop stop-color="#EB2613"/>
<stop offset="1" stop-color="#FC5B2A"/>
</linearGradient>
<linearGradient id="paint2_linear_5153_2891" x1="25" y1="0" x2="25" y2="50" gradientUnits="userSpaceOnUse">
<stop stop-color="#EB2613"/>
<stop offset="1" stop-color="#FC5B2A"/>
</linearGradient>
</defs>
</svg>
