<svg width="52" height="50" viewBox="0 0 52 50" fill="none" xmlns="http://www.w3.org/2000/svg">
<path d="M11.198 29.9854C10.2521 30.9851 9.41293 33.3715 9.59458 34.4647C9.93519 36.5146 25.5317 42.6298 26.8544 42.41C27.9365 42.2302 28.3107 40.7637 28.2038 39.3772M46.186 21.9248C44.902 23.1212 43.1825 24.6708 42.5746 25.4739M42.5746 25.4739C41.8892 24.3239 40.067 21.5373 39.216 20.1339C38.8847 19.6273 38.719 19.3739 38.719 19.3739C37.1011 17.8171 30.6055 16.6496 29.8841 16.7695L22.5652 18.8281C19.507 19.7576 18.2366 19.5474 17.6034 17.9674C17.1358 16.6408 17.4283 16.1709 18.3221 15.6011M42.5746 25.4739C43.0488 26.0973 45.2865 30.6406 45.3773 31.1872C45.5136 32.0072 45.1915 33.0437 44.7559 33.3969C44.3204 33.7502 40.5366 37.7492 31.7909 40.8876C30.8517 41.1841 30.0328 41.4606 29.4156 40.7206C29.25 40.4673 26.7063 37.8004 23.7724 35.7602C21.9595 34.5167 10.9775 29.2011 5.99952 27.5005M18.3221 15.6011L27.939 11.7562C28.5175 11.5197 30.412 11.7666 32.1862 12.0335L35.8549 12.5474C37.3432 12.5809 38.4026 12.2645 39.1762 11.7147M18.3221 15.6011C17.2172 15.6443 14 14.4999 12.5 14.0002" stroke="url(#paint0_linear_604_943)" stroke-width="2" stroke-miterlimit="10" stroke-linejoin="round"/>
<path d="M32.9031 40.1402C33.0982 39.8269 33.2933 39.5137 33.3454 39.0837C33.4496 38.2238 33.2454 36.9939 32.5306 36.4105" stroke="url(#paint1_linear_604_943)" stroke-width="2" stroke-miterlimit="10" stroke-linecap="round" stroke-linejoin="round"/>
<path d="M37.8235 37.7795C37.921 37.6228 38.0185 37.4663 37.9731 37.1929C38.0774 36.333 37.5712 34.0297 36.8564 33.4464" stroke="url(#paint2_linear_604_943)" stroke-width="2" stroke-miterlimit="10" stroke-linecap="round" stroke-linejoin="round"/>
<path d="M40.9112 36.2832C41.129 36.1066 41.8051 35.7135 41.7891 34.8735C41.7731 34.0336 41.2895 31.8671 40.5747 31.2837" stroke="url(#paint3_linear_604_943)" stroke-width="2" stroke-miterlimit="10" stroke-linecap="round" stroke-linejoin="round"/>
<path d="M10.0902 9.03673L13.3055 11.6679C12.2775 14.454 7.59319 25.143 5.07294 29.416L0.893452 28.4591" stroke="#232727" stroke-miterlimit="10" stroke-linecap="round" stroke-linejoin="round"/>
<path d="M39.6886 5.20439L36.7096 8.75337C40.5611 11.7695 46.1566 21.1441 47.381 23.4718L50.7953 21.6393" stroke="#232727" stroke-miterlimit="10" stroke-linecap="round" stroke-linejoin="round"/>
<defs>
<linearGradient id="paint0_linear_604_943" x1="23.9954" y1="12.0901" x2="28.9748" y2="42.0577" gradientUnits="userSpaceOnUse">
<stop stop-color="#EB2613"/>
<stop offset="1" stop-color="#FC5B2A"/>
</linearGradient>
<linearGradient id="paint1_linear_604_943" x1="32.6658" y1="36.388" x2="33.2789" y2="40.0778" gradientUnits="userSpaceOnUse">
<stop stop-color="#EB2613"/>
<stop offset="1" stop-color="#FC5B2A"/>
</linearGradient>
<linearGradient id="paint2_linear_604_943" x1="37.1549" y1="33.3968" x2="37.8816" y2="37.7698" gradientUnits="userSpaceOnUse">
<stop stop-color="#EB2613"/>
<stop offset="1" stop-color="#FC5B2A"/>
</linearGradient>
<linearGradient id="paint3_linear_604_943" x1="40.6558" y1="31.2702" x2="41.4733" y2="36.1899" gradientUnits="userSpaceOnUse">
<stop stop-color="#EB2613"/>
<stop offset="1" stop-color="#FC5B2A"/>
</linearGradient>
</defs>
</svg>
