<svg width="21" height="22" viewBox="0 0 21 22" fill="none" xmlns="http://www.w3.org/2000/svg">
<path d="M17.1046 17.2729C17.3072 19.5608 13.187 21.2412 10.277 19.9864C6.73736 18.2808 2.41843 13.6668 1.32351 9.77205C0.671171 7.16202 2.58335 3.6238 4.50756 3.6886C5.15308 3.73619 7.7436 8.01087 6.70292 8.9936C5.80511 9.87129 5.40474 9.86103 5.97785 10.9627C6.69026 12.4407 8.71481 14.6511 10.1169 15.4479C11.2491 16.0515 11.2651 15.6481 12.2281 14.6789C13.424 13.6691 17.1328 16.9475 17.1046 17.2729Z" stroke="url(#paint0_linear_604_1707)" stroke-width="1.5" stroke-miterlimit="10" stroke-linecap="round" stroke-linejoin="round"/>
<path d="M10.1426 8.39995V8.39995C11.7205 8.39995 12.9997 9.67914 12.9997 11.2571V11.4M16.4283 11.4V11.0857C16.4283 7.61416 13.6141 4.79995 10.1426 4.79995V4.79995M10.1426 1.19995V1.19995C15.5076 1.19995 19.8569 5.54918 19.8569 10.9142V11.4" stroke="#232727"/>
<defs>
<linearGradient id="paint0_linear_604_1707" x1="7.56056" y1="3.12175" x2="10.6505" y2="20.8294" gradientUnits="userSpaceOnUse">
<stop stop-color="#EB2613"/>
<stop offset="1" stop-color="#FC5B2A"/>
</linearGradient>
</defs>
</svg>
